<mxfile modified="2022-05-06T02:46:32.313Z" host="app.diagrams.net" agent="5.0 (Windows NT 10.0; Win64; x64) AppleWebKit/537.36 (KHTML, like Gecko) Chrome/100.0.4896.127 Safari/537.36 Edg/100.0.1185.50" etag="64-UddW0-7RNXDOr8liE" compressed="false" version="17.5.0" type="google">
  <diagram id="gaVSATFC0_fvNZMt8wNA" name="Development/Patterns/Factory">
    <mxGraphModel grid="1" page="1" gridSize="10" guides="1" tooltips="1" connect="1" arrows="1" fold="1" pageScale="1" pageWidth="850" pageHeight="1100" math="0" shadow="0">
      <root>
        <mxCell id="a5gPLAfUaWWoGHoybqCl-0" />
        <mxCell id="a5gPLAfUaWWoGHoybqCl-1" parent="a5gPLAfUaWWoGHoybqCl-0" />
        <mxCell id="a5gPLAfUaWWoGHoybqCl-2" value="The FactoryPattern protects the Consumer from &#xa;having to concern itself with the complexity &#xa;required to instantiate Product.&#xa;&#xa;The Consumer requests Factory to Create a &#xa;concrete implementation of IProduct.&#xa;Factory protects Consumer from having &#xa;to know that Product requires the instantiation &#xa;of Required first -- it handles it internally." style="shape=note;whiteSpace=wrap;html=1;size=14;verticalAlign=top;align=left;spacingTop=-6;fontFamily=Helvetica;fontSize=12;fontColor=#000000;strokeColor=#000000;fillColor=none;gradientColor=none;" vertex="1" parent="a5gPLAfUaWWoGHoybqCl-1">
          <mxGeometry x="120" y="240" width="200" height="240" as="geometry" />
        </mxCell>
        <mxCell id="a5gPLAfUaWWoGHoybqCl-6" value="" style="edgeStyle=elbowEdgeStyle;elbow=horizontal;strokeColor=#000000;endArrow=open;entryX=1;entryY=0.25;fontSize=12;entryDx=0;entryDy=0;exitX=0;exitY=0.5;exitDx=0;exitDy=0;" edge="1" parent="a5gPLAfUaWWoGHoybqCl-1" source="a5gPLAfUaWWoGHoybqCl-15" target="a5gPLAfUaWWoGHoybqCl-12">
          <mxGeometry x="-78.125" y="140" width="100" height="100" as="geometry">
            <mxPoint x="546.875" y="515" as="sourcePoint" />
            <mxPoint x="576.875" y="385.875" as="targetPoint" />
          </mxGeometry>
        </mxCell>
        <mxCell id="a5gPLAfUaWWoGHoybqCl-7" value="" style="edgeStyle=elbowEdgeStyle;elbow=horizontal;strokeColor=#000000;endArrow=open;exitX=1;exitY=0.5;entryX=0;entryY=0.5;fontSize=12;exitDx=0;exitDy=0;entryDx=0;entryDy=0;" edge="1" parent="a5gPLAfUaWWoGHoybqCl-1" source="a5gPLAfUaWWoGHoybqCl-12" target="a5gPLAfUaWWoGHoybqCl-16">
          <mxGeometry x="-78.125" y="140" width="100" height="100" as="geometry">
            <mxPoint x="340" y="455" as="sourcePoint" />
            <mxPoint x="576.875" y="385.875" as="targetPoint" />
            <Array as="points">
              <mxPoint x="440" y="510" />
            </Array>
          </mxGeometry>
        </mxCell>
        <mxCell id="a5gPLAfUaWWoGHoybqCl-9" value="" style="edgeStyle=elbowEdgeStyle;elbow=horizontal;strokeColor=#000000;endArrow=open;fontSize=12;exitX=0.5;exitY=1;exitDx=0;exitDy=0;entryX=0.5;entryY=0;entryDx=0;entryDy=0;" edge="1" parent="a5gPLAfUaWWoGHoybqCl-1" source="a5gPLAfUaWWoGHoybqCl-16" target="a5gPLAfUaWWoGHoybqCl-17">
          <mxGeometry x="-58.125" y="160" width="100" height="100" as="geometry">
            <mxPoint x="350" y="645" as="sourcePoint" />
            <mxPoint x="610" y="477.625" as="targetPoint" />
            <Array as="points" />
          </mxGeometry>
        </mxCell>
        <mxCell id="a5gPLAfUaWWoGHoybqCl-10" value="" style="elbow=horizontal;strokeColor=#000000;endArrow=open;exitX=1;exitY=0.75;entryX=0;entryY=0.75;fontSize=12;exitDx=0;exitDy=0;entryDx=0;entryDy=0;" edge="1" parent="a5gPLAfUaWWoGHoybqCl-1" source="a5gPLAfUaWWoGHoybqCl-12" target="a5gPLAfUaWWoGHoybqCl-17">
          <mxGeometry x="-68.125" y="150" width="100" height="100" as="geometry">
            <mxPoint x="350" y="667.5" as="sourcePoint" />
            <mxPoint x="610" y="590" as="targetPoint" />
          </mxGeometry>
        </mxCell>
        <mxCell id="a5gPLAfUaWWoGHoybqCl-11" value="" style="edgeStyle=elbowEdgeStyle;elbow=horizontal;strokeColor=#000000;endArrow=open;entryX=0.5;entryY=0;fontSize=12;exitX=0.5;exitY=1;exitDx=0;exitDy=0;entryDx=0;entryDy=0;" edge="1" parent="a5gPLAfUaWWoGHoybqCl-1" source="a5gPLAfUaWWoGHoybqCl-15" target="a5gPLAfUaWWoGHoybqCl-16">
          <mxGeometry x="-68.125" y="150" width="100" height="100" as="geometry">
            <mxPoint x="350" y="607.5" as="sourcePoint" />
            <mxPoint x="610" y="590" as="targetPoint" />
            <Array as="points" />
          </mxGeometry>
        </mxCell>
        <mxCell id="a5gPLAfUaWWoGHoybqCl-12" value="&lt;p style=&quot;margin: 0px ; margin-top: 4px ; text-align: center&quot;&gt;&lt;b&gt;ProductFactory&lt;/b&gt;&lt;/p&gt;&lt;hr size=&quot;1&quot;&gt;&lt;div style=&quot;height: 2px&quot;&gt;+ Create(): Product&lt;/div&gt;" style="verticalAlign=top;align=left;overflow=fill;fontSize=12;fontFamily=Helvetica;html=1;rounded=0;strokeColor=#000000;fillColor=none;container=0;" vertex="1" parent="a5gPLAfUaWWoGHoybqCl-1">
          <mxGeometry x="120" y="520" width="120" height="80" as="geometry" />
        </mxCell>
        <mxCell id="a5gPLAfUaWWoGHoybqCl-15" value="&lt;p style=&quot;margin: 0px ; margin-top: 4px ; text-align: center&quot;&gt;&lt;b&gt;Consumer&lt;/b&gt;&lt;/p&gt;&lt;hr size=&quot;1&quot;&gt;&lt;div style=&quot;height: 2px&quot;&gt;&lt;/div&gt;" style="verticalAlign=top;align=left;overflow=fill;fontSize=12;fontFamily=Helvetica;html=1;rounded=0;strokeColor=#000000;fillColor=none;" vertex="1" parent="a5gPLAfUaWWoGHoybqCl-1">
          <mxGeometry x="480" y="320" width="140" height="80" as="geometry" />
        </mxCell>
        <mxCell id="a5gPLAfUaWWoGHoybqCl-16" value="&lt;p style=&quot;margin: 0px ; margin-top: 4px ; text-align: center&quot;&gt;&lt;b&gt;Product&lt;/b&gt;&lt;/p&gt;&lt;hr size=&quot;1&quot;&gt;&lt;div style=&quot;height: 2px&quot;&gt;&lt;/div&gt;" style="verticalAlign=top;align=left;overflow=fill;fontSize=12;fontFamily=Helvetica;html=1;rounded=0;strokeColor=#000000;fillColor=none;" vertex="1" parent="a5gPLAfUaWWoGHoybqCl-1">
          <mxGeometry x="480" y="420" width="140" height="80" as="geometry" />
        </mxCell>
        <mxCell id="a5gPLAfUaWWoGHoybqCl-17" value="&lt;p style=&quot;margin: 0px ; margin-top: 4px ; text-align: center&quot;&gt;&lt;b&gt;Required&lt;/b&gt;&lt;/p&gt;&lt;hr size=&quot;1&quot;&gt;&lt;div style=&quot;height: 2px&quot;&gt;&lt;/div&gt;" style="verticalAlign=top;align=left;overflow=fill;fontSize=12;fontFamily=Helvetica;html=1;rounded=0;strokeColor=#000000;fillColor=none;" vertex="1" parent="a5gPLAfUaWWoGHoybqCl-1">
          <mxGeometry x="480" y="520" width="140" height="80" as="geometry" />
        </mxCell>
        <mxCell id="0wJKa9FG8dqlCejYFQBM-0" value="&lt;font style=&quot;font-size: 12px&quot;&gt;Diagram: Base System Logical Module - Development - Patterns - Factory Pattern (Concrete)&lt;/font&gt;" style="text;strokeColor=none;fillColor=none;html=1;fontSize=12;fontStyle=2;verticalAlign=middle;align=left;shadow=0;glass=0;comic=0;opacity=30;fontColor=#808080;" vertex="1" parent="a5gPLAfUaWWoGHoybqCl-1">
          <mxGeometry x="120" y="640" width="520" height="20" as="geometry" />
        </mxCell>
      </root>
    </mxGraphModel>
  </diagram>
</mxfile>
